<svg width="24" height="24" viewBox="0 0 13 13" fill="none" xmlns="http://www.w3.org/2000/svg">
<path fill-rule="evenodd" clip-rule="evenodd" d="M0.292787 1.29301C0.480314 1.10553 0.734622 1.00022 0.999786 1.00022C1.26495 1.00022 1.51926 1.10553 1.70679 1.29301L5.99979 5.58601L10.2928 1.29301C10.385 1.19749 10.4954 1.12131 10.6174 1.0689C10.7394 1.01649 10.8706 0.988908 11.0034 0.987754C11.1362 0.986601 11.2678 1.0119 11.3907 1.06218C11.5136 1.11246 11.6253 1.18672 11.7192 1.28061C11.8131 1.3745 11.8873 1.48615 11.9376 1.60905C11.9879 1.73195 12.0132 1.86363 12.012 1.99641C12.0109 2.12919 11.9833 2.26041 11.9309 2.38241C11.8785 2.50441 11.8023 2.61476 11.7068 2.707L7.41379 7L11.7068 11.293C11.8889 11.4816 11.9897 11.7342 11.9875 11.9964C11.9852 12.2586 11.88 12.5094 11.6946 12.6948C11.5092 12.8802 11.2584 12.9854 10.9962 12.9877C10.734 12.99 10.4814 12.8892 10.2928 12.707L5.99979 8.414L1.70679 12.707C1.51818 12.8892 1.26558 12.99 1.00339 12.9877C0.741188 12.9854 0.490376 12.8802 0.304968 12.6948C0.11956 12.5094 0.0143906 12.2586 0.0121121 11.9964C0.00983372 11.7342 0.110629 11.4816 0.292787 11.293L4.58579 7L0.292787 2.707C0.105316 2.51948 0 2.26517 0 2C0 1.73484 0.105316 1.48053 0.292787 1.29301V1.29301Z" fill="white
"/>
</svg>
